G04*
G04 #@! TF.GenerationSoftware,Altium Limited,Altium Designer,20.0.1 (14)*
G04*
G04 Layer_Color=32768*
%FSLAX25Y25*%
%MOIN*%
G70*
G01*
G75*
%ADD15C,0.01000*%
%ADD66C,0.00394*%
D15*
X29000Y99500D02*
G03*
X29016Y94051I2732J-2717D01*
G01*
X-29016D02*
G03*
X-29000Y99500I-2717J2732D01*
G01*
X-29016Y94051D02*
G03*
X29181Y94000I29016J-94051D01*
G01*
X-78742Y99500D02*
X-29000D01*
X29000D02*
X78739D01*
Y178220D01*
X78758Y178240D01*
X-78722D02*
X78758D01*
X-78742Y178220D02*
X-78722Y178240D01*
X-78742Y99500D02*
Y178220D01*
D66*
X13532Y19500D02*
X17469D01*
X15500Y17531D02*
Y21468D01*
X1327Y2472D02*
Y36528D01*
X29673Y2472D02*
Y36528D01*
X1327Y2472D02*
X29673D01*
X1327Y36528D02*
X29673D01*
X-8000Y26032D02*
Y29969D01*
X-9968Y28000D02*
X-6032D01*
X-15677Y34890D02*
X-323D01*
X-15677Y21110D02*
X-323D01*
X-15677D02*
X-15677Y34890D01*
X-323Y21110D02*
Y34890D01*
X-8000Y32D02*
Y3968D01*
X-9968Y2000D02*
X-6032D01*
X-15677Y8890D02*
X-323D01*
X-15677Y-4890D02*
X-323D01*
X-15677D02*
X-15677Y8890D01*
X-323Y-4890D02*
Y8890D01*
X64260Y-4969D02*
Y-1032D01*
X62291Y-3000D02*
X66228D01*
X56878Y-9890D02*
X71642D01*
X56878Y3890D02*
X71642D01*
Y-9890D02*
Y3890D01*
X56878Y-9890D02*
Y3890D01*
M02*
