M48
;Layer_Color=9474304
;FILE_FORMAT=2:5
INCH,LZ
;TYPE=PLATED
T1F00S00C0.01000
T2F00S00C0.02200
T4F00S00C0.03543
T5F00S00C0.03937
T6F00S00C0.04724
T7F00S00C0.05906
T8F00S00C0.15748
;TYPE=NON_PLATED
T9F00S00C0.02953
%
T01
X-00075Y-0036
X00075
X00125
X0012Y-0027
X00125Y-0012
X-00035Y-0002
X0037382Y-0003126
Y-0013126
X00375Y-00185
X006052Y-000674
X-00225Y-0025346
X-00375Y-0023
Y-00185
X-0038Y-0013
X-0046898Y00075
X-0055Y0007
X-0054Y0013
X-00535Y0019
X-0046898Y00175
X-0065313Y0009449
X-0069984Y0000984
X-007Y-0003
X-0074Y-00045
X-0065313Y-0009449
X-0052Y-00285
X-0053Y0027
X-0037421Y0021874
X-00375Y0044
X-0041
Y0048
X-00375
X-00335
Y0044
X-00285Y00465
X-0021Y00535
X-0009Y0074654
X-00145Y0118
X-0027Y0174
X-0073Y0039
X0004863Y006
X00165Y00575
X0026181Y005058
X0028Y0045
X00305Y0026
X00285Y00235
X0025879Y002145
X00375Y00265
X00385Y0072
Y0076
X0043
Y0072
X002Y0074654
X001275
X00055
X-000175
X00165Y0118
X00155Y0126
X00235
X0073Y00505
T02
X-0024Y00965
X-0018611
X-0013222
X-0007833
X-0002444
X0002944
X0008333
X0013722
X0019111
X00245
T04
X0Y-00645
X001
X002
X003
X0055858Y-0065642
X0062929Y-0058571
X007Y-00515
X0077071Y-0044429
X00825Y-00225
Y-00125
Y-00025
Y00075
Y00175
X0048787Y-0072713
X-001Y-00645
X-002
X-003
X-00515Y00685
X-0058571Y0061429
X-0065642Y0054358
X-00405Y01295
Y01395
Y01495
X0072Y01525
Y01425
Y01325
X00825Y00275
T05
X-0067Y0114
Y012401
X-00665Y0154
Y016401
T06
X0035Y012887
Y01395
Y015013
T07
X0035Y0116902
Y0162098
T08
X0061Y01145
T09
X-0070874Y-0011378
Y0011378
M30
