G04*
G04 #@! TF.GenerationSoftware,Altium Limited,Altium Designer,20.0.1 (14)*
G04*
G04 Layer_Color=2752767*
%FSLAX25Y25*%
%MOIN*%
G70*
G01*
G75*
%ADD15C,0.01000*%
%ADD68C,0.00200*%
%ADD69C,0.00267*%
%ADD70C,0.00133*%
D15*
X29000Y99500D02*
G03*
X29016Y94051I2732J-2717D01*
G01*
X-29016D02*
G03*
X-29000Y99500I-2717J2732D01*
G01*
X-29016Y94051D02*
G03*
X29181Y94000I29016J-94051D01*
G01*
X-78742Y99500D02*
X-29000D01*
X29000D02*
X78739D01*
Y178220D01*
X78758Y178240D01*
X-78722D02*
X78758D01*
X-78742Y178220D02*
X-78722Y178240D01*
X-78742Y99500D02*
Y178220D01*
D68*
X81700Y26700D02*
Y28300D01*
X83300D01*
Y26700D01*
X81700D01*
Y16700D02*
Y18300D01*
X83300D01*
Y16700D01*
X81700D01*
Y6700D02*
Y8300D01*
X83300D01*
Y6700D01*
X81700D01*
Y-3300D02*
Y-1700D01*
X83300D01*
Y-3300D01*
X81700D01*
Y-13300D02*
Y-11700D01*
X83300D01*
Y-13300D01*
X81700D01*
Y-23300D02*
Y-21700D01*
X83300D01*
Y-23300D01*
X81700D01*
X76271Y-45229D02*
Y-43629D01*
X77871D01*
Y-45229D01*
X76271D01*
X69200Y-52300D02*
Y-50700D01*
X70800D01*
Y-52300D01*
X69200D01*
X62129Y-59371D02*
Y-57771D01*
X63729D01*
Y-59371D01*
X62129D01*
X55058Y-66442D02*
Y-64842D01*
X56658D01*
Y-66442D01*
X55058D01*
X47987Y-73513D02*
Y-71913D01*
X49587D01*
Y-73513D01*
X47987D01*
X-68906Y16208D02*
X-69706Y17808D01*
X-68106D01*
X-68906Y16208D01*
Y-17808D02*
X-69706Y-16208D01*
X-68106D01*
X-68906Y-17808D01*
X-85244Y16208D02*
X-84844Y16608D01*
X-84444D01*
X-84844Y17008D01*
X-84444Y17408D01*
X-84844D01*
X-85244Y17808D01*
X-85644Y17408D01*
X-86044D01*
X-85644Y17008D01*
X-86044Y16608D01*
X-85644D01*
X-85244Y16208D01*
Y-17808D02*
X-84844Y-17408D01*
X-84444D01*
X-84844Y-17008D01*
X-84444Y-16608D01*
X-84844D01*
X-85244Y-16208D01*
X-85644Y-16608D01*
X-86044D01*
X-85644Y-17008D01*
X-86044Y-17408D01*
X-85644D01*
X-85244Y-17808D01*
X34200Y128070D02*
X34600Y128870D01*
X34200Y129670D01*
X35000Y129270D01*
X35800Y129670D01*
X35400Y128870D01*
X35800Y128070D01*
X35000Y128470D01*
X34200Y128070D01*
Y138700D02*
X34600Y139500D01*
X34200Y140300D01*
X35000Y139900D01*
X35800Y140300D01*
X35400Y139500D01*
X35800Y138700D01*
X35000Y139100D01*
X34200Y138700D01*
Y149330D02*
X34600Y150130D01*
X34200Y150930D01*
X35000Y150530D01*
X35800Y150930D01*
X35400Y150130D01*
X35800Y149330D01*
X35000Y149730D01*
X34200Y149330D01*
X34600Y161698D02*
Y161298D01*
X35400D01*
Y161698D01*
X35800D01*
Y162498D01*
X35400D01*
Y162898D01*
X34600D01*
Y162498D01*
X34200D01*
Y161698D01*
X34600D01*
Y116502D02*
Y116102D01*
X35400D01*
Y116502D01*
X35800D01*
Y117302D01*
X35400D01*
Y117702D01*
X34600D01*
Y117302D01*
X34200D01*
Y116502D01*
X34600D01*
X-67300Y163210D02*
X-66900D01*
X-66500Y163610D01*
X-66100Y163210D01*
X-65700D01*
Y163610D01*
X-66100Y164010D01*
X-65700Y164410D01*
Y164810D01*
X-66100D01*
X-66500Y164410D01*
X-66900Y164810D01*
X-67300D01*
Y164410D01*
X-66900Y164010D01*
X-67300Y163610D01*
Y163210D01*
Y153200D02*
X-66900D01*
X-66500Y153600D01*
X-66100Y153200D01*
X-65700D01*
Y153600D01*
X-66100Y154000D01*
X-65700Y154400D01*
Y154800D01*
X-66100D01*
X-66500Y154400D01*
X-66900Y154800D01*
X-67300D01*
Y154400D01*
X-66900Y154000D01*
X-67300Y153600D01*
Y153200D01*
X-52300Y67700D02*
Y69300D01*
X-50700D01*
Y67700D01*
X-52300D01*
X-59371Y60629D02*
Y62229D01*
X-57771D01*
Y60629D01*
X-59371D01*
X-66442Y53558D02*
Y55158D01*
X-64842D01*
Y53558D01*
X-66442D01*
X-41300Y148700D02*
Y150300D01*
X-39700D01*
Y148700D01*
X-41300D01*
Y138700D02*
Y140300D01*
X-39700D01*
Y138700D01*
X-41300D01*
Y128700D02*
Y130300D01*
X-39700D01*
Y128700D01*
X-41300D01*
X71200Y151700D02*
Y153300D01*
X72800D01*
Y151700D01*
X71200D01*
Y141700D02*
Y143300D01*
X72800D01*
Y141700D01*
X71200D01*
Y131700D02*
Y133300D01*
X72800D01*
Y131700D01*
X71200D01*
X-30800Y-65300D02*
Y-63700D01*
X-29200D01*
Y-65300D01*
X-30800D01*
X-20800D02*
Y-63700D01*
X-19200D01*
Y-65300D01*
X-20800D01*
X-10800D02*
Y-63700D01*
X-9200D01*
Y-65300D01*
X-10800D01*
X-800D02*
Y-63700D01*
X800D01*
Y-65300D01*
X-800D01*
X19200D02*
Y-63700D01*
X20800D01*
Y-65300D01*
X19200D01*
X29200D02*
Y-63700D01*
X30800D01*
Y-65300D01*
X29200D01*
X9200D02*
Y-63700D01*
X10800D01*
Y-65300D01*
X9200D01*
X-67800Y113200D02*
X-67400D01*
X-67000Y113600D01*
X-66600Y113200D01*
X-66200D01*
Y113600D01*
X-66600Y114000D01*
X-66200Y114400D01*
Y114800D01*
X-66600D01*
X-67000Y114400D01*
X-67400Y114800D01*
X-67800D01*
Y114400D01*
X-67400Y114000D01*
X-67800Y113600D01*
Y113200D01*
Y123210D02*
X-67400D01*
X-67000Y123610D01*
X-66600Y123210D01*
X-66200D01*
Y123610D01*
X-66600Y124010D01*
X-66200Y124410D01*
Y124810D01*
X-66600D01*
X-67000Y124410D01*
X-67400Y124810D01*
X-67800D01*
Y124410D01*
X-67400Y124010D01*
X-67800Y123610D01*
Y123210D01*
X-22300Y102500D02*
X-21500Y103300D01*
X-20700Y102500D01*
X-21500Y101700D01*
X-22300Y102500D01*
Y91000D02*
X-21500Y91800D01*
X-20700Y91000D01*
X-21500Y90200D01*
X-22300Y91000D01*
X15700Y118000D02*
X16500Y118800D01*
X17300Y118000D01*
X16500Y117200D01*
X15700Y118000D01*
X22700Y126000D02*
X23500Y126800D01*
X24300Y126000D01*
X23500Y125200D01*
X22700Y126000D01*
X14700D02*
X15500Y126800D01*
X16300Y126000D01*
X15500Y125200D01*
X14700Y126000D01*
X-29300Y46500D02*
X-28500Y47300D01*
X-27700Y46500D01*
X-28500Y45700D01*
X-29300Y46500D01*
X25381Y50580D02*
X26181Y51380D01*
X26981Y50580D01*
X26181Y49780D01*
X25381Y50580D01*
X-55800Y7000D02*
X-55000Y7800D01*
X-54200Y7000D01*
X-55000Y6200D01*
X-55800Y7000D01*
X-54800Y13000D02*
X-54000Y13800D01*
X-53200Y13000D01*
X-54000Y12200D01*
X-54800Y13000D01*
X-54300Y19000D02*
X-53500Y19800D01*
X-52700Y19000D01*
X-53500Y18200D01*
X-54300Y19000D01*
X-53800Y27000D02*
X-53000Y27800D01*
X-52200Y27000D01*
X-53000Y26200D01*
X-53800Y27000D01*
X-34300Y48000D02*
X-33500Y48800D01*
X-32700Y48000D01*
X-33500Y47200D01*
X-34300Y48000D01*
X-38300D02*
X-37500Y48800D01*
X-36700Y48000D01*
X-37500Y47200D01*
X-38300Y48000D01*
X-41800D02*
X-41000Y48800D01*
X-40200Y48000D01*
X-41000Y47200D01*
X-41800Y48000D01*
X-34300Y44000D02*
X-33500Y44800D01*
X-32700Y44000D01*
X-33500Y43200D01*
X-34300Y44000D01*
X-38300D02*
X-37500Y44800D01*
X-36700Y44000D01*
X-37500Y43200D01*
X-38300Y44000D01*
X-41800D02*
X-41000Y44800D01*
X-40200Y44000D01*
X-41000Y43200D01*
X-41800Y44000D01*
X42200Y72000D02*
X43000Y72800D01*
X43800Y72000D01*
X43000Y71200D01*
X42200Y72000D01*
X37700D02*
X38500Y72800D01*
X39300Y72000D01*
X38500Y71200D01*
X37700Y72000D01*
X42200Y76000D02*
X43000Y76800D01*
X43800Y76000D01*
X43000Y75200D01*
X42200Y76000D01*
X37700D02*
X38500Y76800D01*
X39300Y76000D01*
X38500Y75200D01*
X37700Y76000D01*
X11700Y-12000D02*
X12500Y-11200D01*
X13300Y-12000D01*
X12500Y-12800D01*
X11700Y-12000D01*
X-23300Y-25346D02*
X-22500Y-24546D01*
X-21700Y-25346D01*
X-22500Y-26147D01*
X-23300Y-25346D01*
X59720Y-6740D02*
X60520Y-5940D01*
X61320Y-6740D01*
X60520Y-7540D01*
X59720Y-6740D01*
X-52800Y-28500D02*
X-52000Y-27700D01*
X-51200Y-28500D01*
X-52000Y-29300D01*
X-52800Y-28500D01*
X-38300Y-23000D02*
X-37500Y-22200D01*
X-36700Y-23000D01*
X-37500Y-23800D01*
X-38300Y-23000D01*
Y-18500D02*
X-37500Y-17700D01*
X-36700Y-18500D01*
X-37500Y-19300D01*
X-38300Y-18500D01*
X-47698Y7500D02*
X-46898Y8300D01*
X-46098Y7500D01*
X-46898Y6700D01*
X-47698Y7500D01*
X-21800Y53500D02*
X-21000Y54300D01*
X-20200Y53500D01*
X-21000Y52700D01*
X-21800Y53500D01*
X15700Y57500D02*
X16500Y58300D01*
X17300Y57500D01*
X16500Y56700D01*
X15700Y57500D01*
X72200Y50500D02*
X73000Y51300D01*
X73800Y50500D01*
X73000Y49700D01*
X72200Y50500D01*
X27200Y45000D02*
X28000Y45800D01*
X28800Y45000D01*
X28000Y44200D01*
X27200Y45000D01*
X-2550Y74654D02*
X-1750Y75454D01*
X-950Y74654D01*
X-1750Y73853D01*
X-2550Y74654D01*
X4063Y60000D02*
X4863Y60800D01*
X5663Y60000D01*
X4863Y59200D01*
X4063Y60000D01*
X-38800Y-13000D02*
X-38000Y-12200D01*
X-37200Y-13000D01*
X-38000Y-13800D01*
X-38800Y-13000D01*
X27700Y23500D02*
X28500Y24300D01*
X29300Y23500D01*
X28500Y22700D01*
X27700Y23500D01*
X29700Y26000D02*
X30500Y26800D01*
X31300Y26000D01*
X30500Y25200D01*
X29700Y26000D01*
X36582Y-3126D02*
X37382Y-2326D01*
X38182Y-3126D01*
X37382Y-3926D01*
X36582Y-3126D01*
X11200Y-27000D02*
X12000Y-26200D01*
X12800Y-27000D01*
X12000Y-27800D01*
X11200Y-27000D01*
X11700Y-36000D02*
X12500Y-35200D01*
X13300Y-36000D01*
X12500Y-36800D01*
X11700Y-36000D01*
X6700D02*
X7500Y-35200D01*
X8300Y-36000D01*
X7500Y-36800D01*
X6700Y-36000D01*
X-8300D02*
X-7500Y-35200D01*
X-6700Y-36000D01*
X-7500Y-36800D01*
X-8300Y-36000D01*
X25079Y21450D02*
X25879Y22250D01*
X26679Y21450D01*
X25879Y20650D01*
X25079Y21450D01*
X36700Y26500D02*
X37500Y27300D01*
X38300Y26500D01*
X37500Y25700D01*
X36700Y26500D01*
X-38221Y21874D02*
X-37421Y22674D01*
X-36621Y21874D01*
X-37421Y21074D01*
X-38221Y21874D01*
X-47698Y17500D02*
X-46898Y18300D01*
X-46098Y17500D01*
X-46898Y16700D01*
X-47698Y17500D01*
X19200Y74654D02*
X20000Y75454D01*
X20800Y74654D01*
X20000Y73853D01*
X19200Y74654D01*
X11950D02*
X12750Y75454D01*
X13550Y74654D01*
X12750Y73853D01*
X11950Y74654D01*
X4700D02*
X5500Y75454D01*
X6300Y74654D01*
X5500Y73853D01*
X4700Y74654D01*
X-9800D02*
X-9000Y75454D01*
X-8200Y74654D01*
X-9000Y73853D01*
X-9800Y74654D01*
X-66113Y9449D02*
X-65313Y10249D01*
X-64513Y9449D01*
X-65313Y8649D01*
X-66113Y9449D01*
Y-9449D02*
X-65313Y-8649D01*
X-64513Y-9449D01*
X-65313Y-10249D01*
X-66113Y-9449D01*
X-73800Y39000D02*
X-73000Y39800D01*
X-72200Y39000D01*
X-73000Y38200D01*
X-73800Y39000D01*
X-74800Y-4500D02*
X-74000Y-3700D01*
X-73200Y-4500D01*
X-74000Y-5300D01*
X-74800Y-4500D01*
X-70800Y-3000D02*
X-70000Y-2200D01*
X-69200Y-3000D01*
X-70000Y-3800D01*
X-70800Y-3000D01*
X-70784Y984D02*
X-69984Y1784D01*
X-69184Y984D01*
X-69984Y184D01*
X-70784Y984D01*
X36582Y-13126D02*
X37382Y-12326D01*
X38182Y-13126D01*
X37382Y-13926D01*
X36582Y-13126D01*
X36700Y-18500D02*
X37500Y-17700D01*
X38300Y-18500D01*
X37500Y-19300D01*
X36700Y-18500D01*
X-4300Y-2000D02*
X-3500Y-1200D01*
X-2700Y-2000D01*
X-3500Y-2800D01*
X-4300Y-2000D01*
X-27800Y174000D02*
X-27000Y174800D01*
X-26200Y174000D01*
X-27000Y173200D01*
X-27800Y174000D01*
X-15300Y118000D02*
X-14500Y118800D01*
X-13700Y118000D01*
X-14500Y117200D01*
X-15300Y118000D01*
X60200Y113700D02*
Y115300D01*
X61800D01*
Y113700D01*
X60200D01*
X60600Y114100D02*
Y114900D01*
X61400D01*
Y114100D01*
X60600D01*
D69*
X-70074Y11378D02*
G03*
X-70074Y11378I-800J0D01*
G01*
Y-11378D02*
G03*
X-70074Y-11378I-800J0D01*
G01*
X25300Y96500D02*
G03*
X25300Y96500I-800J0D01*
G01*
X19911D02*
G03*
X19911Y96500I-800J0D01*
G01*
X14522D02*
G03*
X14522Y96500I-800J0D01*
G01*
X9133D02*
G03*
X9133Y96500I-800J0D01*
G01*
X3744D02*
G03*
X3744Y96500I-800J0D01*
G01*
X-1644D02*
G03*
X-1644Y96500I-800J0D01*
G01*
X-7033D02*
G03*
X-7033Y96500I-800J0D01*
G01*
X-12422D02*
G03*
X-12422Y96500I-800J0D01*
G01*
X-17811D02*
G03*
X-17811Y96500I-800J0D01*
G01*
X-23200D02*
G03*
X-23200Y96500I-800J0D01*
G01*
D70*
X24900D02*
G03*
X24900Y96500I-400J0D01*
G01*
X19511D02*
G03*
X19511Y96500I-400J0D01*
G01*
X14122D02*
G03*
X14122Y96500I-400J0D01*
G01*
X8733D02*
G03*
X8733Y96500I-400J0D01*
G01*
X3344D02*
G03*
X3344Y96500I-400J0D01*
G01*
X-2045D02*
G03*
X-2045Y96500I-400J0D01*
G01*
X-7433D02*
G03*
X-7433Y96500I-400J0D01*
G01*
X-12822D02*
G03*
X-12822Y96500I-400J0D01*
G01*
X-18211D02*
G03*
X-18211Y96500I-400J0D01*
G01*
X-23600D02*
G03*
X-23600Y96500I-400J0D01*
G01*
M02*
