G04*
G04 #@! TF.GenerationSoftware,Altium Limited,Altium Designer,20.0.1 (14)*
G04*
G04 Layer_Color=12632256*
%FSLAX25Y25*%
%MOIN*%
G70*
G01*
G75*
%ADD34C,0.02953*%
%ADD38C,0.05906*%
%ADD45R,0.05906X0.05906*%
%ADD46P,0.08352X4X270.0*%
%ADD47O,0.08268X0.03937*%
%ADD48O,0.07087X0.03937*%
%ADD49C,0.08268*%
%ADD50O,0.15748X0.09843*%
%ADD51O,0.06500X0.06000*%
%ADD52R,0.06500X0.06000*%
%ADD53P,0.08352X4X180.0*%
%ADD54R,0.05906X0.05906*%
D34*
X-70874Y11378D02*
D03*
Y-11378D02*
D03*
D38*
X82500Y27500D02*
D03*
Y17500D02*
D03*
Y7500D02*
D03*
Y-2500D02*
D03*
Y-12500D02*
D03*
X70000Y-51500D02*
D03*
X62929Y-58571D02*
D03*
X55858Y-65642D02*
D03*
X48787Y-72713D02*
D03*
X-58571Y61429D02*
D03*
X-65642Y54358D02*
D03*
X-40500Y149500D02*
D03*
Y139500D02*
D03*
X72000Y142500D02*
D03*
Y132500D02*
D03*
X-30000Y-64500D02*
D03*
X-20000D02*
D03*
X-10000D02*
D03*
X0D02*
D03*
X20000D02*
D03*
X10000D02*
D03*
D45*
X82500Y-22500D02*
D03*
X72000Y152500D02*
D03*
D46*
X77071Y-44429D02*
D03*
D47*
X-68906Y17008D02*
D03*
Y-17008D02*
D03*
D48*
X-85244Y17008D02*
D03*
Y-17008D02*
D03*
D49*
X35000Y128870D02*
D03*
Y139500D02*
D03*
Y150130D02*
D03*
D50*
Y162098D02*
D03*
Y116902D02*
D03*
D51*
X-66500Y164010D02*
D03*
X-67000Y124010D02*
D03*
D52*
X-66500Y154000D02*
D03*
X-67000Y114000D02*
D03*
D53*
X-51500Y68500D02*
D03*
D54*
X-40500Y129500D02*
D03*
X30000Y-64500D02*
D03*
M02*
