G04*
G04 #@! TF.GenerationSoftware,Altium Limited,Altium Designer,20.0.1 (14)*
G04*
G04 Layer_Color=8388736*
%FSLAX25Y25*%
%MOIN*%
G70*
G01*
G75*
%ADD15C,0.01000*%
G04:AMPARAMS|DCode=17|XSize=31.5mil|YSize=32.01mil|CornerRadius=7.87mil|HoleSize=0mil|Usage=FLASHONLY|Rotation=0.000|XOffset=0mil|YOffset=0mil|HoleType=Round|Shape=RoundedRectangle|*
%AMROUNDEDRECTD17*
21,1,0.03150,0.01626,0,0,0.0*
21,1,0.01575,0.03201,0,0,0.0*
1,1,0.01575,0.00787,-0.00813*
1,1,0.01575,-0.00787,-0.00813*
1,1,0.01575,-0.00787,0.00813*
1,1,0.01575,0.00787,0.00813*
%
%ADD17ROUNDEDRECTD17*%
%ADD18R,0.06496X0.09449*%
%ADD19R,0.09843X0.15748*%
G04:AMPARAMS|DCode=20|XSize=31.5mil|YSize=32.01mil|CornerRadius=7.87mil|HoleSize=0mil|Usage=FLASHONLY|Rotation=225.000|XOffset=0mil|YOffset=0mil|HoleType=Round|Shape=RoundedRectangle|*
%AMROUNDEDRECTD20*
21,1,0.03150,0.01626,0,0,225.0*
21,1,0.01575,0.03201,0,0,225.0*
1,1,0.01575,-0.01132,0.00018*
1,1,0.01575,-0.00018,0.01132*
1,1,0.01575,0.01132,-0.00018*
1,1,0.01575,0.00018,-0.01132*
%
%ADD20ROUNDEDRECTD20*%
%ADD21R,0.12992X0.09449*%
%ADD22R,0.03740X0.09449*%
G04:AMPARAMS|DCode=23|XSize=31.5mil|YSize=32.01mil|CornerRadius=7.87mil|HoleSize=0mil|Usage=FLASHONLY|Rotation=90.000|XOffset=0mil|YOffset=0mil|HoleType=Round|Shape=RoundedRectangle|*
%AMROUNDEDRECTD23*
21,1,0.03150,0.01626,0,0,90.0*
21,1,0.01575,0.03201,0,0,90.0*
1,1,0.01575,0.00813,0.00787*
1,1,0.01575,0.00813,-0.00787*
1,1,0.01575,-0.00813,-0.00787*
1,1,0.01575,-0.00813,0.00787*
%
%ADD23ROUNDEDRECTD23*%
%ADD24O,0.06693X0.02362*%
%ADD25R,0.04528X0.02362*%
%ADD26R,0.05512X0.01181*%
%ADD27R,0.05512X0.02362*%
%ADD28R,0.04921X0.02756*%
%ADD29R,0.07874X0.09843*%
G04:AMPARAMS|DCode=30|XSize=106.3mil|YSize=78.74mil|CornerRadius=19.68mil|HoleSize=0mil|Usage=FLASHONLY|Rotation=180.000|XOffset=0mil|YOffset=0mil|HoleType=Round|Shape=RoundedRectangle|*
%AMROUNDEDRECTD30*
21,1,0.10630,0.03937,0,0,180.0*
21,1,0.06693,0.07874,0,0,180.0*
1,1,0.03937,-0.03347,0.01968*
1,1,0.03937,0.03347,0.01968*
1,1,0.03937,0.03347,-0.01968*
1,1,0.03937,-0.03347,-0.01968*
%
%ADD30ROUNDEDRECTD30*%
%ADD31O,0.08661X0.02362*%
%ADD32R,0.05512X0.01968*%
%ADD33C,0.03543*%
%ADD34C,0.02953*%
%ADD35O,0.07087X0.02400*%
%ADD36O,0.05906X0.02400*%
%ADD37C,0.04724*%
%ADD38C,0.05906*%
%ADD39C,0.03937*%
%ADD40C,0.01000*%
%ADD41C,0.15748*%
%ADD42C,0.02200*%
D15*
X29000Y99500D02*
G03*
X29016Y94051I2732J-2717D01*
G01*
X-29016D02*
G03*
X-29000Y99500I-2717J2732D01*
G01*
X-29016Y94051D02*
G03*
X29181Y94000I29016J-94051D01*
G01*
X-78742Y99500D02*
X-29000D01*
X29000D02*
X78739D01*
Y178220D01*
X78758Y178240D01*
X-78722D02*
X78758D01*
X-78742Y178220D02*
X-78722Y178240D01*
X-78742Y99500D02*
Y178220D01*
D17*
X-193Y40500D02*
D03*
X6500D02*
D03*
X22346D02*
D03*
X15654D02*
D03*
X-5153Y18000D02*
D03*
X-11846D02*
D03*
X-5153Y12500D02*
D03*
X-11846D02*
D03*
X-26846Y166000D02*
D03*
X-20154D02*
D03*
X-26846Y174000D02*
D03*
X-20154D02*
D03*
X26500D02*
D03*
X33193D02*
D03*
X39154D02*
D03*
X45846D02*
D03*
X26846Y-76000D02*
D03*
X20154D02*
D03*
D18*
X-10744Y165000D02*
D03*
X8744D02*
D03*
D19*
X-12559Y140500D02*
D03*
X10000D02*
D03*
D20*
X68366Y-39134D02*
D03*
X63634Y-43866D02*
D03*
D21*
X15500Y8083D02*
D03*
D22*
X6484Y30917D02*
D03*
X15500Y30917D02*
D03*
X24516Y30917D02*
D03*
D23*
X-22500Y-25346D02*
D03*
Y-18654D02*
D03*
X20000Y81346D02*
D03*
Y74654D02*
D03*
X12750Y81346D02*
D03*
Y74654D02*
D03*
X31561Y50580D02*
D03*
Y57273D02*
D03*
X26181Y50580D02*
D03*
Y57273D02*
D03*
X2000Y50580D02*
D03*
Y57273D02*
D03*
X-3500Y50580D02*
D03*
Y57273D02*
D03*
X-23500Y108653D02*
D03*
Y115347D02*
D03*
X20000Y115654D02*
D03*
Y122346D02*
D03*
X72500Y-22846D02*
D03*
Y-16154D02*
D03*
X-9000Y81346D02*
D03*
Y74654D02*
D03*
X-1750Y81346D02*
D03*
Y74654D02*
D03*
X5500Y81346D02*
D03*
Y74654D02*
D03*
D24*
X-13098Y-22000D02*
D03*
Y-17000D02*
D03*
Y-27000D02*
D03*
X12098Y-22000D02*
D03*
Y-12000D02*
D03*
Y-17000D02*
D03*
Y-27000D02*
D03*
X-13098Y-12000D02*
D03*
X-14697Y123000D02*
D03*
X10500Y108000D02*
D03*
Y118000D02*
D03*
Y123000D02*
D03*
Y113000D02*
D03*
X-14697Y108000D02*
D03*
Y118000D02*
D03*
Y113000D02*
D03*
D25*
X-12429Y28000D02*
D03*
X-3571Y31740D02*
D03*
Y24260D02*
D03*
X-12429Y2000D02*
D03*
X-3571Y5740D02*
D03*
Y-1740D02*
D03*
D26*
X-65313Y6890D02*
D03*
Y4921D02*
D03*
Y2953D02*
D03*
Y984D02*
D03*
Y-984D02*
D03*
Y-2953D02*
D03*
Y-4921D02*
D03*
Y-6890D02*
D03*
D27*
Y-9449D02*
D03*
Y-12598D02*
D03*
Y9449D02*
D03*
Y12598D02*
D03*
D28*
X17921Y49760D02*
D03*
Y57240D02*
D03*
X8079Y53500D02*
D03*
X-10579Y49760D02*
D03*
Y57240D02*
D03*
X-20421Y53500D02*
D03*
D29*
X-2000Y115500D02*
D03*
D30*
X55500Y153130D02*
D03*
Y131870D02*
D03*
D31*
X-46898Y22500D02*
D03*
Y17500D02*
D03*
Y12500D02*
D03*
Y7500D02*
D03*
Y2500D02*
D03*
Y-2500D02*
D03*
X-46898Y-7500D02*
D03*
X-46898Y-12500D02*
D03*
X-28000Y22500D02*
D03*
Y17500D02*
D03*
Y12500D02*
D03*
Y7500D02*
D03*
Y2500D02*
D03*
Y-2500D02*
D03*
Y-7500D02*
D03*
Y-12500D02*
D03*
D32*
X68000Y-3000D02*
D03*
X60520Y-6740D02*
D03*
Y740D02*
D03*
D33*
X82500Y27500D02*
D03*
Y17500D02*
D03*
Y7500D02*
D03*
Y-2500D02*
D03*
Y-12500D02*
D03*
Y-22500D02*
D03*
X77071Y-44429D02*
D03*
X70000Y-51500D02*
D03*
X62929Y-58571D02*
D03*
X55858Y-65642D02*
D03*
X48787Y-72713D02*
D03*
X-51500Y68500D02*
D03*
X-58571Y61429D02*
D03*
X-65642Y54358D02*
D03*
X-40500Y149500D02*
D03*
Y139500D02*
D03*
Y129500D02*
D03*
X72000Y152500D02*
D03*
Y142500D02*
D03*
Y132500D02*
D03*
X-30000Y-64500D02*
D03*
X-20000D02*
D03*
X-10000D02*
D03*
X0D02*
D03*
X20000D02*
D03*
X30000D02*
D03*
X10000D02*
D03*
D34*
X-70874Y11378D02*
D03*
Y-11378D02*
D03*
D35*
X-68906Y17008D02*
D03*
Y-17008D02*
D03*
D36*
X-85244Y17008D02*
D03*
Y-17008D02*
D03*
D37*
X35000Y128870D02*
D03*
Y139500D02*
D03*
Y150130D02*
D03*
D38*
Y162098D02*
D03*
Y116902D02*
D03*
D39*
X-66500Y164010D02*
D03*
Y154000D02*
D03*
X-67000Y114000D02*
D03*
Y124010D02*
D03*
D40*
X-21500Y102500D02*
D03*
Y91000D02*
D03*
X16500Y118000D02*
D03*
X23500Y126000D02*
D03*
X15500D02*
D03*
X-28500Y46500D02*
D03*
X26181Y50580D02*
D03*
X-55000Y7000D02*
D03*
X-54000Y13000D02*
D03*
X-53500Y19000D02*
D03*
X-53000Y27000D02*
D03*
X-33500Y48000D02*
D03*
X-37500D02*
D03*
X-41000D02*
D03*
X-33500Y44000D02*
D03*
X-37500D02*
D03*
X-41000D02*
D03*
X43000Y72000D02*
D03*
X38500D02*
D03*
X43000Y76000D02*
D03*
X38500D02*
D03*
X12500Y-12000D02*
D03*
X-22500Y-25346D02*
D03*
X60520Y-6740D02*
D03*
X-52000Y-28500D02*
D03*
X-37500Y-23000D02*
D03*
Y-18500D02*
D03*
X-46898Y7500D02*
D03*
X-21000Y53500D02*
D03*
X16500Y57500D02*
D03*
X73000Y50500D02*
D03*
X28000Y45000D02*
D03*
X-1750Y74654D02*
D03*
X4863Y60000D02*
D03*
X-38000Y-13000D02*
D03*
X28500Y23500D02*
D03*
X30500Y26000D02*
D03*
X37382Y-3126D02*
D03*
X12000Y-27000D02*
D03*
X12500Y-36000D02*
D03*
X7500D02*
D03*
X-7500D02*
D03*
X25879Y21450D02*
D03*
X37500Y26500D02*
D03*
X-37421Y21874D02*
D03*
X-46898Y17500D02*
D03*
X20000Y74654D02*
D03*
X12750D02*
D03*
X5500D02*
D03*
X-9000D02*
D03*
X-65313Y9449D02*
D03*
Y-9449D02*
D03*
X-73000Y39000D02*
D03*
X-74000Y-4500D02*
D03*
X-70000Y-3000D02*
D03*
X-69984Y984D02*
D03*
X37382Y-13126D02*
D03*
X37500Y-18500D02*
D03*
X-3500Y-2000D02*
D03*
X-27000Y174000D02*
D03*
X-14500Y118000D02*
D03*
D41*
X61000Y114500D02*
D03*
D42*
X24500Y96500D02*
D03*
X19111D02*
D03*
X13722D02*
D03*
X8333D02*
D03*
X2944D02*
D03*
X-2444D02*
D03*
X-7833D02*
D03*
X-13222D02*
D03*
X-18611D02*
D03*
X-24000D02*
D03*
M02*
