G04*
G04 #@! TF.GenerationSoftware,Altium Limited,Altium Designer,20.0.1 (14)*
G04*
G04 Layer_Color=128*
%FSLAX25Y25*%
%MOIN*%
G70*
G01*
G75*
%ADD15C,0.01000*%
%ADD68C,0.00200*%
D15*
X29000Y99500D02*
G03*
X29016Y94051I2732J-2717D01*
G01*
X-29016D02*
G03*
X-29000Y99500I-2717J2732D01*
G01*
X-29016Y94051D02*
G03*
X29181Y94000I29016J-94051D01*
G01*
X-78742Y99500D02*
X-29000D01*
X29000D02*
X78739D01*
Y178220D01*
X78758Y178240D01*
X-78722D02*
X78758D01*
X-78742Y178220D02*
X-78722Y178240D01*
X-78742Y99500D02*
Y178220D01*
D68*
X80728Y27500D02*
X84272D01*
X82500Y25728D02*
Y29272D01*
X80728Y17500D02*
X84272D01*
X82500Y15728D02*
Y19272D01*
X80728Y7500D02*
X84272D01*
X82500Y5728D02*
Y9272D01*
X80728Y-2500D02*
X84272D01*
X82500Y-4272D02*
Y-728D01*
X80728Y-12500D02*
X84272D01*
X82500Y-14272D02*
Y-10728D01*
X80728Y-22500D02*
X84272D01*
X82500Y-24272D02*
Y-20728D01*
X75299Y-44429D02*
X78843D01*
X77071Y-46201D02*
Y-42657D01*
X68228Y-51500D02*
X71772D01*
X70000Y-53272D02*
Y-49728D01*
X61157Y-58571D02*
X64701D01*
X62929Y-60343D02*
Y-56799D01*
X54086Y-65642D02*
X57630D01*
X55858Y-67414D02*
Y-63871D01*
X47015Y-72713D02*
X50558D01*
X48787Y-74485D02*
Y-70942D01*
X-72350Y11378D02*
X-69397D01*
X-70874Y9901D02*
Y12854D01*
X-72350Y-11378D02*
X-69397D01*
X-70874Y-12855D02*
Y-9902D01*
X-70106Y17008D02*
X-67706D01*
X-68906Y15808D02*
Y18208D01*
X-70106Y-17008D02*
X-67706D01*
X-68906Y-18208D02*
Y-15808D01*
X-86444Y17008D02*
X-84044D01*
X-85244Y15808D02*
Y18208D01*
X-86444Y-17008D02*
X-84044D01*
X-85244Y-18208D02*
Y-15808D01*
X32638Y128870D02*
X37362D01*
X35000Y126508D02*
Y131232D01*
X32638Y139500D02*
X37362D01*
X35000Y137138D02*
Y141862D01*
X32638Y150130D02*
X37362D01*
X35000Y147768D02*
Y152492D01*
X32047Y162098D02*
X37953D01*
X35000Y159146D02*
Y165051D01*
X32047Y116902D02*
X37953D01*
X35000Y113949D02*
Y119854D01*
X-68468Y164010D02*
X-64531D01*
X-66500Y162042D02*
Y165979D01*
X-68468Y154000D02*
X-64531D01*
X-66500Y152032D02*
Y155968D01*
X-53272Y68500D02*
X-49728D01*
X-51500Y66728D02*
Y70272D01*
X-60343Y61429D02*
X-56799D01*
X-58571Y59657D02*
Y63201D01*
X-67414Y54358D02*
X-63871D01*
X-65642Y52586D02*
Y56129D01*
X-42272Y149500D02*
X-38728D01*
X-40500Y147728D02*
Y151272D01*
X-42272Y139500D02*
X-38728D01*
X-40500Y137728D02*
Y141272D01*
X-42272Y129500D02*
X-38728D01*
X-40500Y127728D02*
Y131272D01*
X70228Y152500D02*
X73772D01*
X72000Y150728D02*
Y154272D01*
X70228Y142500D02*
X73772D01*
X72000Y140728D02*
Y144272D01*
X70228Y132500D02*
X73772D01*
X72000Y130728D02*
Y134272D01*
X-31772Y-64500D02*
X-28228D01*
X-30000Y-66272D02*
Y-62728D01*
X-21772Y-64500D02*
X-18228D01*
X-20000Y-66272D02*
Y-62728D01*
X-11772Y-64500D02*
X-8228D01*
X-10000Y-66272D02*
Y-62728D01*
X-1772Y-64500D02*
X1772D01*
X0Y-66272D02*
Y-62728D01*
X18228Y-64500D02*
X21772D01*
X20000Y-66272D02*
Y-62728D01*
X28228Y-64500D02*
X31772D01*
X30000Y-66272D02*
Y-62728D01*
X8228Y-64500D02*
X11772D01*
X10000Y-66272D02*
Y-62728D01*
X-68968Y114000D02*
X-65031D01*
X-67000Y112031D02*
Y115969D01*
X-68968Y124010D02*
X-65031D01*
X-67000Y122042D02*
Y125979D01*
X-22000Y102500D02*
X-21000D01*
X-21500Y102000D02*
Y103000D01*
X-22000Y91000D02*
X-21000D01*
X-21500Y90500D02*
Y91500D01*
X16000Y118000D02*
X17000D01*
X16500Y117500D02*
Y118500D01*
X23000Y126000D02*
X24000D01*
X23500Y125500D02*
Y126500D01*
X15000Y126000D02*
X16000D01*
X15500Y125500D02*
Y126500D01*
X-29000Y46500D02*
X-28000D01*
X-28500Y46000D02*
Y47000D01*
X25681Y50580D02*
X26681D01*
X26181Y50080D02*
Y51080D01*
X-55500Y7000D02*
X-54500D01*
X-55000Y6500D02*
Y7500D01*
X-54500Y13000D02*
X-53500D01*
X-54000Y12500D02*
Y13500D01*
Y19000D02*
X-53000D01*
X-53500Y18500D02*
Y19500D01*
Y27000D02*
X-52500D01*
X-53000Y26500D02*
Y27500D01*
X-34000Y48000D02*
X-33000D01*
X-33500Y47500D02*
Y48500D01*
X-38000Y48000D02*
X-37000D01*
X-37500Y47500D02*
Y48500D01*
X-41500Y48000D02*
X-40500D01*
X-41000Y47500D02*
Y48500D01*
X-34000Y44000D02*
X-33000D01*
X-33500Y43500D02*
Y44500D01*
X-38000Y44000D02*
X-37000D01*
X-37500Y43500D02*
Y44500D01*
X-41500Y44000D02*
X-40500D01*
X-41000Y43500D02*
Y44500D01*
X42500Y72000D02*
X43500D01*
X43000Y71500D02*
Y72500D01*
X38000Y72000D02*
X39000D01*
X38500Y71500D02*
Y72500D01*
X42500Y76000D02*
X43500D01*
X43000Y75500D02*
Y76500D01*
X38000Y76000D02*
X39000D01*
X38500Y75500D02*
Y76500D01*
X12000Y-12000D02*
X13000D01*
X12500Y-12500D02*
Y-11500D01*
X-23000Y-25346D02*
X-22000D01*
X-22500Y-25846D02*
Y-24847D01*
X60020Y-6740D02*
X61020D01*
X60520Y-7240D02*
Y-6240D01*
X-52500Y-28500D02*
X-51500D01*
X-52000Y-29000D02*
Y-28000D01*
X-38000Y-23000D02*
X-37000D01*
X-37500Y-23500D02*
Y-22500D01*
X-38000Y-18500D02*
X-37000D01*
X-37500Y-19000D02*
Y-18000D01*
X-47398Y7500D02*
X-46398D01*
X-46898Y7000D02*
Y8000D01*
X-21500Y53500D02*
X-20500D01*
X-21000Y53000D02*
Y54000D01*
X16000Y57500D02*
X17000D01*
X16500Y57000D02*
Y58000D01*
X72500Y50500D02*
X73500D01*
X73000Y50000D02*
Y51000D01*
X27500Y45000D02*
X28500D01*
X28000Y44500D02*
Y45500D01*
X-2250Y74654D02*
X-1250D01*
X-1750Y74154D02*
Y75153D01*
X4363Y60000D02*
X5363D01*
X4863Y59500D02*
Y60500D01*
X-38500Y-13000D02*
X-37500D01*
X-38000Y-13500D02*
Y-12500D01*
X28000Y23500D02*
X29000D01*
X28500Y23000D02*
Y24000D01*
X30000Y26000D02*
X31000D01*
X30500Y25500D02*
Y26500D01*
X36882Y-3126D02*
X37882D01*
X37382Y-3626D02*
Y-2626D01*
X11500Y-27000D02*
X12500D01*
X12000Y-27500D02*
Y-26500D01*
Y-36000D02*
X13000D01*
X12500Y-36500D02*
Y-35500D01*
X7000Y-36000D02*
X8000D01*
X7500Y-36500D02*
Y-35500D01*
X-8000Y-36000D02*
X-7000D01*
X-7500Y-36500D02*
Y-35500D01*
X25379Y21450D02*
X26379D01*
X25879Y20950D02*
Y21950D01*
X37000Y26500D02*
X38000D01*
X37500Y26000D02*
Y27000D01*
X-37921Y21874D02*
X-36921D01*
X-37421Y21374D02*
Y22374D01*
X-47398Y17500D02*
X-46398D01*
X-46898Y17000D02*
Y18000D01*
X19500Y74654D02*
X20500D01*
X20000Y74154D02*
Y75153D01*
X12250Y74654D02*
X13250D01*
X12750Y74154D02*
Y75153D01*
X5000Y74654D02*
X6000D01*
X5500Y74154D02*
Y75153D01*
X-9500Y74654D02*
X-8500D01*
X-9000Y74154D02*
Y75153D01*
X-65813Y9449D02*
X-64813D01*
X-65313Y8949D02*
Y9949D01*
X-65813Y-9449D02*
X-64813D01*
X-65313Y-9949D02*
Y-8949D01*
X-73500Y39000D02*
X-72500D01*
X-73000Y38500D02*
Y39500D01*
X-74500Y-4500D02*
X-73500D01*
X-74000Y-5000D02*
Y-4000D01*
X-70500Y-3000D02*
X-69500D01*
X-70000Y-3500D02*
Y-2500D01*
X-70484Y984D02*
X-69484D01*
X-69984Y484D02*
Y1484D01*
X36882Y-13126D02*
X37882D01*
X37382Y-13626D02*
Y-12626D01*
X37000Y-18500D02*
X38000D01*
X37500Y-19000D02*
Y-18000D01*
X-4000Y-2000D02*
X-3000D01*
X-3500Y-2500D02*
Y-1500D01*
X-27500Y174000D02*
X-26500D01*
X-27000Y173500D02*
Y174500D01*
X-15000Y118000D02*
X-14000D01*
X-14500Y117500D02*
Y118500D01*
X53126Y114500D02*
X68874D01*
X61000Y106626D02*
Y122374D01*
X23400Y96500D02*
X25600D01*
X24500Y95400D02*
Y97600D01*
X18011Y96500D02*
X20211D01*
X19111Y95400D02*
Y97600D01*
X12622Y96500D02*
X14822D01*
X13722Y95400D02*
Y97600D01*
X7233Y96500D02*
X9433D01*
X8333Y95400D02*
Y97600D01*
X1844Y96500D02*
X4044D01*
X2944Y95400D02*
Y97600D01*
X-3545Y96500D02*
X-1345D01*
X-2444Y95400D02*
Y97600D01*
X-8933Y96500D02*
X-6733D01*
X-7833Y95400D02*
Y97600D01*
X-14322Y96500D02*
X-12122D01*
X-13222Y95400D02*
Y97600D01*
X-19711Y96500D02*
X-17511D01*
X-18611Y95400D02*
Y97600D01*
X-25100Y96500D02*
X-22900D01*
X-24000Y95400D02*
Y97600D01*
M02*
